<svg id="Layer_1" data-name="Layer 1" xmlns="http://www.w3.org/2000/svg" viewBox="0 0 1417.32 1417.32"><defs><style>.cls-1,.cls-2,.cls-3{fill:red;}.cls-2{fill-rule:evenodd;}.cls-3{font-size:33.25px;font-family:ArialMT, Arial;}.cls-4{fill:#fff;}</style></defs><circle class="cls-1" cx="1299.38" cy="586.93" r="26.49" transform="translate(587.27 1822.16) rotate(-84.35)"/><path class="cls-1" d="M1280.21,677.87q-4.93-29.48-37.88-29.48-33.22,0-36.78,29.48Zm30.39,83.92H1245q-65.9,0-67.53-70.24Q1175.79,621,1241.69,621q65.63,0,67.27,70.41l.32,13.77H1206.19q4.93,29.22,38.14,29.21H1310Zm-181.84-83.92q-4.93-29.48-37.89-29.48-33.21,0-36.77,29.48Zm30.39,83.92h-65.63q-65.89,0-67.54-70.24Q1024.35,621,1090.24,621q65.63,0,67.27,70.41l.32,13.77h-103.1q4.93,29.22,38.15,29.21h65.63ZM984.8,691.55q-.51-21.59-7.9-31.17-9.31-12-31.37-12h-38l1,43.16q.5,21.3,7.89,30.89,9.06,12,31.11,12t30.8-12Q985.3,712.87,984.8,691.55Zm27.63,0q1.64,70.23-64.25,70.24-65.64,0-67.28-70.38L878,565.53H905.6L906.9,621h38Q1010.79,621,1012.43,691.55ZM829.84,677.87Q824.91,648.4,792,648.39q-33.21,0-36.78,29.48Zm30.39,83.92H794.6q-65.9,0-67.54-70.24Q725.43,621,791.31,621q65.64,0,67.27,70.41l.33,13.77H755.81q4.94,29.22,38.15,29.21h65.63Zm-151.46,0H681.14l-1.64-70.38q-.51-21.51-7.9-31.07-9.06-12-31.1-12t-30.81,12q-7,9.55-6.45,31.07l1.64,70.38H577.25l-1.64-70.24Q574,621,639.86,621q65.63,0,67.27,70.51ZM527.51,691.55q-.5-21.59-7.9-31.17-9-12-31.1-12t-30.54,12q-7,9.57-6.45,31.17t7.9,31.15q9,11.76,31.1,11.73t30.55-11.73Q528,713.15,527.51,691.55Zm27.64,0q1.64,70.23-64,70.24-65.91,0-67.54-70.24Q422,621,487.87,621,553.51,621,555.15,691.55Z"/><path class="cls-2" d="M945.45,667.37a23.64,23.64,0,0,1,23.52,23,22.33,22.33,0,0,1-22.45,23,23.64,23.64,0,0,1-23.53-23,22.36,22.36,0,0,1,22.46-23"/><path class="cls-1" d="M97.22,680.62l-2.59,5.43m3.25-11.81-2.31,5.57m4.81-20.1-3.49,7.34m194.88-56.53q-18.69-9.21-49.52-11.83a133.56,133.56,0,0,0-60.9,9.22q-30.06,11.85-45.57,44.44-21.18,44.53-6.78,87T170.08,795l20.34,10q29.7,14.63,66.51,3.59t53.21-45.52q14.34-30.15,3.91-62.79t-43.7-49q-22.82-11.25-48.9-5.66t-37.06,28.68q-9.55,20.1-3.78,39.71t20.07,26.65c6.59,3.25,11.95,4.17,15.66,2,5.41-3.13,7.83-8.61,10.39-14l4.72-7.06c1.45-2.17,2.13-5.43,3-9.24l12.93,6.37,8.25,15.47c3.29,6.16,1.61,15.88-4.59,28.92Q243.18,779.7,221.88,786T186,785.05q-29.42-14.49-40.24-37.76c-7.21-15.51-10.19-30.88-8.79-46.08a141.93,141.93,0,0,1,3.38-20A87.2,87.2,0,0,1,146,664.42q19.63-41.28,60.77-50.69t75.49,7.52q39.58,19.51,55.35,61.64t-2.72,81Q314.6,806.51,283.08,822t-61.76,12.81q-30.21-2.64-50.58-12.68-35.6-17.55-55.11-47.28t-20.5-37.76q-.94-8,0-23.82t0-24.64l-2.59,5.43,3.59,41.67c1.36,15.76,7.61,32.64,18.1,50.66s28.4,33.28,53.74,45.76c20.21,10,38.09,17.12,53.65,16.71L263,847.78q7.14,3.53,40.95-23.9t40.66-41.83q18.21-38.29,12-74.06T330.8,646.18Q311.29,620.14,291.77,610.52Zm4.46-22.94q53.34,26.28,69.36,65.36c10.69,26,16.79,54.57,11.43,84.42l-9.69,53.9-16.88-7.32-22.51,29.48c-16.29,21.33-41.25,33.21-68.68,40.93s-59.52,2.52-96.17-15.54a161.85,161.85,0,0,1-41-28.88,3.4,3.4,0,0,0,1.83-3.84l.13.07c-.55-.76-.42-1.23-1.39-1.91A195.21,195.21,0,0,1,99.93,764.1,120.29,120.29,0,0,1,91.3,722q-.69-22.47,1.41-34a78.29,78.29,0,0,1,5.84-19.41,66.13,66.13,0,0,1,3.23-6.79c1.52-2.44,3.06-3.85,3.69-4.89l4.83-8a17.74,17.74,0,0,0,2.1-14.39l-10.34,21.73q29.07-61.11,82.76-79.08T296.23,587.58Z"/><path class="cls-2" d="M207.26,680.18A14.17,14.17,0,0,1,221.36,694a13.39,13.39,0,0,1-13.46,13.77A14.18,14.18,0,0,1,193.79,694a13.41,13.41,0,0,1,13.47-13.78"/><path class="cls-1" d="M1292.28,846.71l-1.13-48.55h9q8.47,0,12.43,5.74t4.26,18.46q.3,12.84-3.4,18.59t-12.16,5.76Zm4-44.25.92,39.68,1.71.14,1,0q6.88,0,9.56-4.39t2.4-15.73q-.25-11.21-3.11-15.54t-9.71-4.36c-.31,0-.65,0-1,0S1297.05,802.39,1296.29,802.46Zm-31,10.69c-.73-1.83-1.41-3.66-2.06-5.53s-1.29-3.76-1.91-5.69l1.05,44.78H1258l-1.13-48.55h7.25l10.68,27.53c.81,2.19,1.58,4.29,2.27,6.28s1.35,3.94,1.94,5.82c-.17-1.45-.29-2.92-.4-4.46s-.18-3.58-.24-6.16l-.68-29h4.37l1.13,48.55h-4.89Zm-40.41,33.56,9.39-48.55h6.87l11.76,48.55h-5.26l-3.15-14.31h-12.23l-2.49,14.31Zm8.35-18.87h10.14l-5.68-25.39ZM1197,846.71l-1.13-48.55h8.85q7.89,0,11.86,3.17t4.11,9.58a13,13,0,0,1-1.8,7.44,10.06,10.06,0,0,1-5.6,4.18l8.5,24.18h-5.37l-7.86-23.1-3.11.1-2.07,0h-1.94l.54,23Zm4.34-27.33h4.23q5,0,7.45-2.11c1.64-1.42,2.43-3.53,2.36-6.35s-.94-5-2.62-6.36-4.21-2.1-7.58-2.1h-4.23Zm-36.25,27.33-1.14-48.55h8.85a27.14,27.14,0,0,1,7.8.81,10.92,10.92,0,0,1,4.39,2.76,9.49,9.49,0,0,1,2.23,3.55,14.73,14.73,0,0,1,.86,4.79,12.38,12.38,0,0,1-1.57,6.86,10.28,10.28,0,0,1-5.11,4.15,11.91,11.91,0,0,1,6.14,4.42,13.82,13.82,0,0,1,2.15,7.64q.16,6.89-3.57,10.22t-11.51,3.35Zm4.33-27.46H1174c3.13,0,5.48-.74,7-2.23s2.32-3.69,2.25-6.63-.88-4.9-2.43-6.11-4.17-1.82-7.89-1.82h-4Zm.53,23h5q5.24,0,7.58-2.23c1.57-1.49,2.31-3.83,2.23-7s-1-5.66-2.69-7.21-4.38-2.32-8-2.32h-4.63Zm-44.48,4.43-1.13-48.55h5l1,43.91h15.25l.11,4.64Zm-14.17,0-1.14-48.55h5l1.13,48.55Zm-33.19,0,9.39-48.55h6.87l11.76,48.55h-5.26l-3.15-14.31h-12.23L1083,846.71Zm8.35-18.87h10.14l-5.68-25.39Zm-22.73,18.87-1-44.38h-9.74l-.1-4.17h24.39l.09,4.17h-9.74l1,44.38Zm-34,0-1.13-48.55h21.83l.11,4.5h-16.86l.39,16.72h12.36l.1,4.43h-12.36l.43,18.4H1052l.11,4.5Zm-31.43,0-1.13-48.55H1006q7.9,0,11.87,3.17c2.63,2.1,4,5.29,4.11,9.58a13.08,13.08,0,0,1-1.8,7.44,10.06,10.06,0,0,1-5.6,4.18l8.5,24.18h-5.37l-7.86-23.1-3.11.1-2.07,0h-1.94l.53,23Zm4.34-27.33h4.23q5,0,7.45-2.11c1.64-1.42,2.43-3.53,2.36-6.35s-.94-5-2.62-6.36-4.22-2.1-7.59-2.1h-4.23Zm-38.24,27.33-1-44.38H953.6l-.09-4.17h24.38l.1,4.17h-9.74l1,44.38Zm-34-17.39q-.23-9.39,2.26-13.82a8.41,8.41,0,0,1,7.9-4.45,8.63,8.63,0,0,1,7.9,4.52q2.68,4.53,2.9,13.75T949,843a8.15,8.15,0,0,1-7.68,4.54,8.88,8.88,0,0,1-8.11-4.45Q930.54,838.66,930.33,829.32Zm4.77,0q.18,7.67,1.6,10.88a4.71,4.71,0,0,0,4.5,3.21q2.92,0,4.17-3.35c.83-2.23,1.2-5.81,1.08-10.74s-.65-8.56-1.58-10.81-2.38-3.37-4.32-3.37-3.52,1.09-4.36,3.25S935,824.2,935.1,829.33Zm-16.26,17.38-1.13-48.55h5l1.13,48.55Zm-34,0-1-44.38H874l-.1-4.17h24.39l.1,4.17h-9.75l1,44.38Zm-37.45-12.89h4.7q.38,4.75,2.31,7a7,7,0,0,0,5.64,2.29,6.4,6.4,0,0,0,5.09-2.2,8.27,8.27,0,0,0,1.84-5.84,10.17,10.17,0,0,0-2-5.83c-1.26-1.75-3.83-4-7.72-6.87s-6.48-5.26-7.75-7.25a13.44,13.44,0,0,1-2-7,10.41,10.41,0,0,1,2.89-7.78,10.06,10.06,0,0,1,7.62-3.14,11.21,11.21,0,0,1,8.65,3.46c2.13,2.32,3.31,5.54,3.54,9.7h-4.57a12.57,12.57,0,0,0-2.26-6.73,6.09,6.09,0,0,0-5.05-2.26,6.22,6.22,0,0,0-4.73,1.83,6.7,6.7,0,0,0-1.65,4.92,7.85,7.85,0,0,0,.7,3.07,9.32,9.32,0,0,0,1.79,2.68,43.45,43.45,0,0,0,5,4.16c2.23,1.64,3.63,2.68,4.22,3.14a24.35,24.35,0,0,1,6,6.49,14.84,14.84,0,0,1,1.94,7.22,12.73,12.73,0,0,1-3.06,9.26,11.11,11.11,0,0,1-8.59,3.49q-5.78,0-9.07-3.61C848.71,841.64,847.53,838.22,847.36,833.82Zm-29.18,12.89L817,798.16h8.85q7.89,0,11.86,3.17t4.11,9.58a13,13,0,0,1-1.8,7.44,10.06,10.06,0,0,1-5.6,4.18L843,846.71h-5.38l-7.86-23.1-3.11.1-2.07,0h-1.94l.54,23Zm4.33-27.33h4.23q5,0,7.45-2.11c1.64-1.42,2.43-3.53,2.36-6.35s-.94-5-2.62-6.36-4.21-2.1-7.58-2.1h-4.24Zm-18.24,27.33-1.13-48.55h5l1.13,48.55Zm-26.35,0-1.13-48.55h20.36l.1,4.5H781.87l.39,16.72h11.82l.11,4.43H782.36l.53,22.9Zm-45.7-12.89h4.7q.39,4.75,2.32,7a7,7,0,0,0,5.64,2.29A6.42,6.42,0,0,0,750,841a8.27,8.27,0,0,0,1.83-5.84,10.23,10.23,0,0,0-2-5.83c-1.26-1.75-3.83-4-7.72-6.87s-6.48-5.26-7.76-7.25a13.34,13.34,0,0,1-2-7,10.41,10.41,0,0,1,2.89-7.78,10.06,10.06,0,0,1,7.62-3.14,11.19,11.19,0,0,1,8.64,3.46c2.14,2.32,3.31,5.54,3.54,9.7h-4.56c-.3-3-1-5.22-2.27-6.73a6.07,6.07,0,0,0-5-2.26,6.21,6.21,0,0,0-4.73,1.83,6.66,6.66,0,0,0-1.65,4.92,7.85,7.85,0,0,0,.7,3.07,9.12,9.12,0,0,0,1.79,2.68,43.45,43.45,0,0,0,5,4.16c2.23,1.64,3.63,2.68,4.21,3.14a24.25,24.25,0,0,1,6,6.49,14.84,14.84,0,0,1,1.94,7.22,12.73,12.73,0,0,1-3.07,9.26,11.1,11.1,0,0,1-8.58,3.49q-5.77,0-9.08-3.61C733.58,841.64,732.39,838.22,732.22,833.82ZM719.63,803.2l-.14-6h5.31l.14,6.3-3.74,9.41h-1.94l2.8-9.73Zm-29.49,43.51,9.39-48.55h6.87l11.76,48.55h-5.25l-3.16-14.31H697.52L695,846.71Zm8.35-18.87h10.15L703,802.45Zm-18.76,18.87-1.13-48.55h5l1.13,48.55Zm-32.44,0-1.13-48.55h9q8.49,0,12.43,5.74t4.26,18.46q.3,12.84-3.39,18.59t-12.16,5.76Zm4-44.25.93,39.68,1.7.14,1,0q6.89,0,9.56-4.39t2.4-15.73q-.27-11.21-3.12-15.54t-9.71-4.36c-.3,0-.65,0-1,0S652.06,802.39,651.3,802.46Zm-31,10.69c-.73-1.83-1.41-3.66-2.07-5.53s-1.29-3.76-1.9-5.69l1,44.78h-4.36l-1.14-48.55h7.26l10.67,27.53c.82,2.19,1.58,4.29,2.28,6.28s1.34,3.94,1.93,5.82c-.16-1.45-.29-2.92-.39-4.46s-.18-3.58-.24-6.16l-.68-29h4.37l1.13,48.55h-4.9Zm-21.27,33.56-1.13-48.55h5L604,846.71Z"/><text class="cls-3" transform="translate(1287.38 595.8)">R</text><path class="cls-4" d="M1287.77,599.85V574h11a18.89,18.89,0,0,1,6,.69,5.93,5.93,0,0,1,3,2.48,7.43,7.43,0,0,1,1.13,4.07,6.88,6.88,0,0,1-1.71,4.8,8.25,8.25,0,0,1-5.11,2.39,12.47,12.47,0,0,1,2.79,2.16,30.45,30.45,0,0,1,3,4.2l3.15,5h-6.23l-3.77-5.62a36.75,36.75,0,0,0-2.75-3.8,4,4,0,0,0-1.57-1.07,8.36,8.36,0,0,0-2.63-.3h-1v10.79Zm5.22-14.91h3.85a19.35,19.35,0,0,0,4.69-.32,2.78,2.78,0,0,0,1.46-1.09,3.31,3.31,0,0,0,.53-1.94,3.09,3.09,0,0,0-.69-2.1,3.24,3.24,0,0,0-2-1c-.42-.05-1.69-.08-3.8-.08H1293Z"/></svg>