<svg width="414" height="625" viewBox="0 0 414 625" fill="none" xmlns="http://www.w3.org/2000/svg">
<g filter="url(#filter0_d_504_964)">
<rect x="7" y="5" width="400" height="611" rx="4" fill="white"/>
<path d="M38.3343 289.735H42.5038L47.0228 300.758H47.2134L51.7324 289.735H55.894V306H52.6219V295.35H52.4789L48.2379 305.929H45.9903L41.7414 295.31H41.6143V306H38.3343V289.735ZM63.988 306.238C60.3029 306.238 57.9997 303.705 57.9997 299.948C57.9997 296.168 60.3029 293.642 63.988 293.642C67.681 293.642 69.9763 296.168 69.9763 299.948C69.9763 303.705 67.681 306.238 63.988 306.238ZM61.3751 299.924C61.3751 302.069 62.2725 303.657 64.0118 303.657C65.7114 303.657 66.6009 302.069 66.6009 299.924C66.6009 297.788 65.7114 296.184 64.0118 296.184C62.2725 296.184 61.3751 297.788 61.3751 299.924ZM71.9991 306V293.801H75.2236V295.922H75.3506C75.7954 294.421 76.9231 293.626 78.2892 293.626C78.6227 293.626 79.0516 293.674 79.3534 293.73V296.7C79.0436 296.605 78.4003 296.517 77.9318 296.517C76.4307 296.517 75.3189 297.566 75.3189 299.067V306H71.9991ZM86.0474 306.238C82.3067 306.238 80.0115 303.824 80.0115 299.956C80.0115 296.192 82.3385 293.642 85.9124 293.642C89.113 293.642 91.6306 295.667 91.6306 299.829V300.758H83.2994C83.2994 302.609 84.3954 303.744 86.103 303.744C87.2466 303.744 88.0487 303.252 88.3903 302.529H91.5512C91.0667 304.777 89.0494 306.238 86.0474 306.238ZM83.2994 298.677H88.4935C88.4856 297.2 87.4531 296.128 85.9679 296.128C84.4431 296.128 83.3789 297.28 83.2994 298.677ZM104.463 306.238C100.722 306.238 98.4743 303.657 98.4743 299.948C98.4743 296.208 100.762 293.642 104.455 293.642C107.608 293.642 109.736 295.477 109.879 298.28H106.75C106.551 297.073 105.757 296.239 104.502 296.239C102.906 296.239 101.85 297.574 101.85 299.901C101.85 302.251 102.89 303.594 104.502 303.594C105.67 303.594 106.543 302.871 106.75 301.568H109.879C109.72 304.34 107.687 306.238 104.463 306.238ZM117.355 306.238C113.67 306.238 111.367 303.705 111.367 299.948C111.367 296.168 113.67 293.642 117.355 293.642C121.048 293.642 123.343 296.168 123.343 299.948C123.343 303.705 121.048 306.238 117.355 306.238ZM114.742 299.924C114.742 302.069 115.64 303.657 117.379 303.657C119.079 303.657 119.968 302.069 119.968 299.924C119.968 297.788 119.079 296.184 117.379 296.184C115.64 296.184 114.742 297.788 114.742 299.924ZM125.366 306V293.801H128.535V295.945H128.678C129.186 294.516 130.425 293.642 132.077 293.642C133.745 293.642 134.984 294.532 135.381 295.945H135.508C136.016 294.548 137.398 293.642 139.177 293.642C141.449 293.642 143.029 295.143 143.029 297.796V306H139.71V298.439C139.71 297.065 138.884 296.39 137.796 296.39C136.549 296.39 135.81 297.256 135.81 298.535V306H132.586V298.36C132.586 297.161 131.831 296.39 130.703 296.39C129.56 296.39 128.686 297.296 128.686 298.67V306H125.366ZM145.514 306V293.801H148.834V306H145.514ZM145.363 290.513C145.363 289.584 146.181 288.821 147.182 288.821C148.174 288.821 148.992 289.584 148.992 290.513C148.992 291.45 148.174 292.205 147.182 292.205C146.181 292.205 145.363 291.45 145.363 290.513ZM154.696 298.94V306H151.376V293.801H154.545V295.945H154.688C155.236 294.532 156.538 293.642 158.349 293.642C160.891 293.642 162.558 295.382 162.55 298.233V306H159.231V298.812C159.239 297.311 158.421 296.406 157.047 296.406C155.657 296.406 154.704 297.335 154.696 298.94ZM170.535 310.829C167.175 310.829 165.094 309.32 164.904 307.001H168.176C168.359 307.985 169.28 308.422 170.606 308.422C172.147 308.422 173.179 307.771 173.179 306.079V303.832H173.036C172.592 304.833 171.52 305.825 169.558 305.825C166.794 305.825 164.594 303.887 164.594 299.829C164.594 295.699 166.85 293.642 169.55 293.642C171.599 293.642 172.584 294.865 173.036 295.85H173.164V293.801H176.459V306.127C176.459 309.248 174.005 310.829 170.535 310.829ZM167.993 299.861C167.993 301.981 168.907 303.324 170.598 303.324C172.242 303.324 173.195 302.029 173.195 299.861C173.195 297.701 172.258 296.303 170.598 296.303C168.891 296.303 167.993 297.764 167.993 299.861ZM191.262 297.431C191.111 296.565 190.365 296.017 189.253 296.017C188.173 296.017 187.355 296.525 187.371 297.256C187.355 297.812 187.792 298.241 188.935 298.487L191.127 298.932C193.486 299.416 194.63 300.472 194.638 302.235C194.63 304.634 192.477 306.238 189.237 306.238C185.941 306.238 184.011 304.769 183.733 302.386H187.077C187.236 303.339 188.014 303.832 189.245 303.832C190.452 303.832 191.254 303.355 191.262 302.569C191.254 301.934 190.738 301.545 189.602 301.306L187.577 300.909C185.25 300.449 184.051 299.249 184.059 297.446C184.051 295.104 186.068 293.642 189.205 293.642C192.295 293.642 194.201 295.104 194.368 297.431H191.262ZM202.1 306.238C198.415 306.238 196.112 303.705 196.112 299.948C196.112 296.168 198.415 293.642 202.1 293.642C205.793 293.642 208.089 296.168 208.089 299.948C208.089 303.705 205.793 306.238 202.1 306.238ZM199.487 299.924C199.487 302.069 200.385 303.657 202.124 303.657C203.824 303.657 204.713 302.069 204.713 299.924C204.713 297.788 203.824 296.184 202.124 296.184C200.385 296.184 199.487 297.788 199.487 299.924ZM215.599 306.238C211.914 306.238 209.611 303.705 209.611 299.948C209.611 296.168 211.914 293.642 215.599 293.642C219.292 293.642 221.588 296.168 221.588 299.948C221.588 303.705 219.292 306.238 215.599 306.238ZM212.986 299.924C212.986 302.069 213.884 303.657 215.623 303.657C217.323 303.657 218.212 302.069 218.212 299.924C218.212 297.788 217.323 296.184 215.623 296.184C213.884 296.184 212.986 297.788 212.986 299.924ZM226.93 298.94V306H223.61V293.801H226.779V295.945H226.922C227.47 294.532 228.773 293.642 230.583 293.642C233.125 293.642 234.793 295.382 234.785 298.233V306H231.465V298.812C231.473 297.311 230.655 296.406 229.281 296.406C227.891 296.406 226.938 297.335 226.93 298.94Z" fill="black"/>
<path d="M246.553 289.735L246.251 301.132H243.384L243.082 289.735H246.553ZM242.939 304.316C242.923 303.284 243.781 302.442 244.822 302.442C245.83 302.442 246.704 303.284 246.712 304.316C246.704 305.357 245.83 306.199 244.822 306.199C243.781 306.199 242.923 305.357 242.939 304.316ZM253.538 289.735L253.237 301.132H250.369L250.068 289.735H253.538ZM249.925 304.316C249.909 303.284 250.767 302.442 251.807 302.442C252.816 302.442 253.689 303.284 253.697 304.316C253.689 305.357 252.816 306.199 251.807 306.199C250.767 306.199 249.909 305.357 249.925 304.316Z" fill="#FF0000"/>
<rect x="6.5" y="4.5" width="401" height="612" rx="4.5" stroke="#E4E4E4"/>
</g>
<defs>
<filter id="filter0_d_504_964" x="0" y="0" width="414" height="625" filterUnits="userSpaceOnUse" color-interpolation-filters="sRGB">
<feFlood flood-opacity="0" result="BackgroundImageFix"/>
<feColorMatrix in="SourceAlpha" type="matrix" values="0 0 0 0 0 0 0 0 0 0 0 0 0 0 0 0 0 0 127 0" result="hardAlpha"/>
<feMorphology radius="2" operator="dilate" in="SourceAlpha" result="effect1_dropShadow_504_964"/>
<feOffset dy="2"/>
<feGaussianBlur stdDeviation="2"/>
<feComposite in2="hardAlpha" operator="out"/>
<feColorMatrix type="matrix" values="0 0 0 0 0 0 0 0 0 0 0 0 0 0 0 0 0 0 0.05 0"/>
<feBlend mode="normal" in2="BackgroundImageFix" result="effect1_dropShadow_504_964"/>
<feBlend mode="normal" in="SourceGraphic" in2="effect1_dropShadow_504_964" result="shape"/>
</filter>
</defs>
</svg>
